<svg width="375" height="375" viewBox="0 0 375 375" fill="none" xmlns="http://www.w3.org/2000/svg">
<g clip-path="url(#clip0)">
<path d="M103.5 0.21875H17C9.00002 0.21875 0 1.61875 0 17.2188V101.719M103.5 10.2188H27.5C8 10.2188 10.5 11.7188 10.5 27.2188V101.719" stroke="black" stroke-width="6"/>
<rect x="24" y="25.2188" width="14" height="14" fill="black"/>
<path d="M1.23423e-06 271.219L2.02723e-07 357.719C1.79171e-08 365.719 1.4 374.719 17 374.719L60 374.719M10 271.219L10 347.219C10 366.719 11.5 364.219 27 364.219L60 364.219" stroke="black" stroke-width="6"/>
<rect x="25" y="350.719" width="14" height="14" transform="rotate(-90 25 350.719)" fill="black"/>
<path d="M309.5 374.719L357.5 374.719C365.5 374.719 374.5 373.319 374.5 357.719L374.5 273.219M309.5 364.719L347 364.719C366.5 364.719 364 363.219 364 347.719L364 273.219" stroke="black" stroke-width="6"/>
<rect x="350.5" y="349.719" width="14" height="14" transform="rotate(-180 350.5 349.719)" fill="black"/>
<path d="M374.276 103.938L374.65 17.4383C374.684 9.43841 373.323 0.432428 357.723 0.365035L273.224 -1.49058e-05M364.276 103.894L364.604 27.895C364.689 8.3952 363.178 10.8887 347.678 10.8217L273.179 10.4999" stroke="black" stroke-width="6"/>
<rect x="349.62" y="24.3303" width="14" height="14" transform="rotate(90.2475 349.62 24.3303)" fill="black"/>
<path d="M39.0136 261.213C36.2718 261.213 33.8876 260.201 31.861 258.176C29.9537 256.151 29 253.769 29 251.029V140.971C29 138.231 29.9537 135.849 31.861 133.824C33.8876 131.799 36.2718 130.787 39.0136 130.787H44.7357C47.4775 130.787 49.8617 131.799 51.8882 133.824C53.9148 135.849 54.9281 138.231 54.9281 140.971V238.88C54.9281 239.952 55.4049 240.488 56.3586 240.488H102.314C105.056 240.488 107.38 241.5 109.288 243.525C111.314 245.431 112.328 247.754 112.328 250.493V251.029C112.328 253.769 111.314 256.151 109.288 258.176C107.38 260.201 105.056 261.213 102.314 261.213H39.0136Z" fill="black"/>
<path d="M146.237 261.213C143.495 261.213 141.111 260.201 139.084 258.176C137.057 256.151 136.044 253.769 136.044 251.029V140.971C136.044 138.231 137.057 135.849 139.084 133.824C141.111 131.799 143.495 130.787 146.237 130.787H207.033C209.775 130.787 212.16 131.799 214.186 133.824C216.213 135.849 217.226 138.231 217.226 140.971C217.226 143.71 216.213 146.092 214.186 148.117C212.16 150.023 209.775 150.976 207.033 150.976H162.688C161.615 150.976 161.078 151.512 161.078 152.584V181.349C161.078 182.421 161.615 182.957 162.688 182.957H203.994C206.735 182.957 209 183.91 210.789 185.816C212.696 187.722 213.65 189.985 213.65 192.605C213.65 195.226 212.696 197.489 210.789 199.395C209 201.181 206.735 202.075 203.994 202.075H162.688C161.615 202.075 161.078 202.611 161.078 203.683V239.416C161.078 240.488 161.615 241.024 162.688 241.024H207.033C209.775 241.024 212.16 242.036 214.186 244.061C216.213 245.967 217.226 248.29 217.226 251.029C217.226 253.769 216.213 256.151 214.186 258.176C212.16 260.201 209.775 261.213 207.033 261.213H146.237Z" fill="black"/>
<path d="M268.467 151.512V240.488C268.467 241.322 268.944 241.858 269.898 242.096C273.713 242.692 277.289 242.989 280.627 242.989C294.574 242.989 304.826 239.237 311.383 231.733C317.939 224.11 321.218 211.604 321.218 194.213C321.218 178.61 317.88 167.175 311.204 159.909C304.528 152.644 294.336 149.011 280.627 149.011C277.289 149.011 273.713 149.308 269.898 149.904C268.944 150.142 268.467 150.678 268.467 151.512ZM253.805 261.749C250.824 261.392 248.381 260.141 246.473 257.997C244.566 255.734 243.612 253.114 243.612 250.136V141.864C243.612 138.886 244.566 136.325 246.473 134.181C248.381 131.918 250.824 130.608 253.805 130.251C261.434 129.417 269.958 129 279.375 129C300.594 129 316.807 134.539 328.013 145.616C339.338 156.693 345 172.892 345 194.213C345 217.083 339.338 234.294 328.013 245.848C316.807 257.283 300.594 263 279.375 263C269.958 263 261.434 262.583 253.805 261.749Z" fill="black"/>
</g>
<defs>
<clipPath id="clip0">
<rect width="375" height="375" fill="white"/>
</clipPath>
</defs>
</svg>
