<svg width="375" height="375" viewBox="0 0 375 375" fill="none" xmlns="http://www.w3.org/2000/svg">
<path d="M168.401 219.797C168.401 277.932 142.001 307 89.2003 307C36.4001 307 10 277.932 10 219.797V86.4095C10 81.4572 11.6622 77.1509 14.9867 73.4905C18.3111 69.8302 22.2223 68 26.7201 68H34.9334C39.4312 68 43.3424 69.8302 46.6668 73.4905C49.9913 77.1509 51.6535 81.4572 51.6535 86.4095V222.381C51.6535 239.176 54.6846 251.341 60.7469 258.877C67.0047 266.198 76.6847 269.858 89.787 269.858C102.889 269.858 112.472 266.198 118.534 258.877C124.792 251.341 127.92 239.176 127.92 222.381V86.4095C127.92 81.4572 129.583 77.1509 132.907 73.4905C136.232 69.8302 140.143 68 144.641 68H151.681C156.178 68 160.089 69.8302 163.414 73.4905C166.738 77.1509 168.401 81.4572 168.401 86.4095V219.797Z" fill="black"/>
<path d="M227.963 286.33L167.243 85.4405C165.874 81.1342 166.363 77.1509 168.71 73.4905C171.056 69.8302 174.283 68 178.39 68H188.95C193.838 68 198.336 69.7225 202.443 73.1676C206.55 76.3973 209.19 80.5959 210.363 85.7635L255.243 259.2C255.243 259.415 255.341 259.523 255.536 259.523C255.732 259.523 255.83 259.415 255.83 259.2L301.297 85.4405C302.666 80.273 305.306 76.0743 309.217 72.8446C313.323 69.6149 317.821 68 322.71 68H332.097C336.203 68 339.43 69.8302 341.777 73.4905C344.124 77.1509 344.612 81.1342 343.243 85.4405L282.523 286.33C280.959 291.497 278.123 295.696 274.017 298.926C270.105 302.155 265.608 303.77 260.523 303.77H249.963C245.074 303.77 240.576 302.155 236.47 298.926C232.559 295.696 229.723 291.497 227.963 286.33Z" fill="black"/>
</svg>
