<svg width="375" height="375" viewBox="0 0 375 375" fill="none" xmlns="http://www.w3.org/2000/svg">
<g clip-path="url(#clip0)">
<path d="M103.5 0.21875H17C9.00002 0.21875 0 1.61875 0 17.2188V101.719M103.5 10.2188H27.5C8 10.2188 10.5 11.7188 10.5 27.2188V101.719" stroke="black" stroke-width="6"/>
<rect x="24" y="25.2188" width="14" height="14" fill="black"/>
<path d="M1.23423e-06 271.219L2.02723e-07 357.719C1.79171e-08 365.719 1.4 374.719 17 374.719L60 374.719M10 271.219L10 347.219C10 366.719 11.5 364.219 27 364.219L60 364.219" stroke="black" stroke-width="6"/>
<rect x="25" y="350.719" width="14" height="14" transform="rotate(-90 25 350.719)" fill="black"/>
<path d="M309.5 374.719L357.5 374.719C365.5 374.719 374.5 373.319 374.5 357.719L374.5 273.219M309.5 364.719L347 364.719C366.5 364.719 364 363.219 364 347.719L364 273.219" stroke="black" stroke-width="6"/>
<rect x="350.5" y="349.719" width="14" height="14" transform="rotate(-180 350.5 349.719)" fill="black"/>
<path d="M374.276 103.938L374.65 17.4383C374.684 9.43841 373.323 0.432428 357.723 0.365035L273.224 -1.49058e-05M364.276 103.894L364.604 27.895C364.689 8.3952 363.178 10.8887 347.678 10.8217L273.179 10.4999" stroke="black" stroke-width="6"/>
<rect x="349.62" y="24.3303" width="14" height="14" transform="rotate(90.2475 349.62 24.3303)" fill="black"/>
<circle cx="188.5" cy="161.711" r="140.357" stroke="black" stroke-width="8"/>
<path d="M306.692 162.5C306.692 230.015 253.362 284.636 187.711 284.636C122.06 284.636 68.7307 230.015 68.7307 162.5C68.7307 94.9854 122.06 40.3641 187.711 40.3641C253.362 40.3641 306.692 94.9854 306.692 162.5Z" stroke="black" stroke-width="5"/>
<path d="M187.711 22.8762V0M333.646 162.5H351M187.711 303.701V325.789M26 162.5H46.5097" stroke="black" stroke-width="6"/>
<path d="M89.8956 164.078H287.104" stroke="black" stroke-width="5"/>
<path d="M87.8 374C86.5733 374 85.5067 373.547 84.6 372.64C83.7467 371.733 83.32 370.667 83.32 369.44V320.16C83.32 318.933 83.7467 317.867 84.6 316.96C85.5067 316.053 86.5733 315.6 87.8 315.6H114.2C115.427 315.6 116.493 316.053 117.4 316.96C118.307 317.867 118.76 318.933 118.76 320.16C118.76 321.387 118.307 322.453 117.4 323.36C116.493 324.213 115.427 324.64 114.2 324.64H95.16C94.7333 324.64 94.52 324.88 94.52 325.36V339.36C94.52 339.787 94.7333 340 95.16 340H112.84C114.013 340 115.027 340.427 115.88 341.28C116.733 342.08 117.16 343.093 117.16 344.32C117.16 345.547 116.733 346.587 115.88 347.44C115.027 348.24 114.013 348.64 112.84 348.64H95.16C94.7333 348.64 94.52 348.853 94.52 349.28V369.44C94.52 370.667 94.0667 371.733 93.16 372.64C92.2533 373.547 91.1867 374 89.96 374H87.8ZM152.313 342.72C150.766 340.48 148.419 339.36 145.273 339.36C142.126 339.36 139.753 340.48 138.153 342.72C136.606 344.907 135.833 348.4 135.833 353.2C135.833 358 136.606 361.52 138.153 363.76C139.753 365.947 142.126 367.04 145.273 367.04C148.419 367.04 150.766 365.947 152.313 363.76C153.913 361.52 154.713 358 154.713 353.2C154.713 348.4 153.913 344.907 152.313 342.72ZM160.153 369.2C156.633 372.933 151.673 374.8 145.273 374.8C138.873 374.8 133.886 372.933 130.313 369.2C126.793 365.413 125.033 360.08 125.033 353.2C125.033 346.32 126.793 341.013 130.313 337.28C133.886 333.493 138.873 331.6 145.273 331.6C151.673 331.6 156.633 333.493 160.153 337.28C163.726 341.013 165.513 346.32 165.513 353.2C165.513 360.08 163.726 365.413 160.153 369.2ZM192.391 374.8C185.778 374.8 180.685 372.987 177.111 369.36C173.538 365.68 171.751 360.293 171.751 353.2C171.751 346.213 173.458 340.88 176.871 337.2C180.338 333.467 185.245 331.6 191.591 331.6C194.418 331.6 197.138 331.787 199.751 332.16C200.978 332.32 201.991 332.88 202.791 333.84C203.591 334.8 203.991 335.92 203.991 337.2C203.991 338.267 203.565 339.12 202.711 339.76C201.911 340.4 200.978 340.613 199.911 340.4C197.831 339.973 195.511 339.76 192.951 339.76C189.591 339.76 187.085 340.827 185.431 342.96C183.778 345.093 182.951 348.507 182.951 353.2C182.951 358 183.831 361.44 185.591 363.52C187.351 365.6 190.071 366.64 193.751 366.64C196.365 366.64 198.631 366.4 200.551 365.92C201.565 365.653 202.471 365.84 203.271 366.48C204.125 367.12 204.551 367.947 204.551 368.96C204.551 370.24 204.151 371.36 203.351 372.32C202.605 373.28 201.618 373.867 200.391 374.08C197.671 374.56 195.005 374.8 192.391 374.8ZM228.216 374.8C223.523 374.8 220.11 373.52 217.976 370.96C215.843 368.347 214.776 363.947 214.776 357.76V336.96C214.776 335.733 215.23 334.667 216.136 333.76C217.043 332.853 218.11 332.4 219.336 332.4H220.616C221.843 332.4 222.91 332.853 223.816 333.76C224.723 334.667 225.176 335.733 225.176 336.96V356.64C225.176 360.373 225.683 362.96 226.696 364.4C227.71 365.84 229.416 366.56 231.816 366.56C234.003 366.56 236.03 365.627 237.896 363.76C239.816 361.893 240.776 359.893 240.776 357.76V336.96C240.776 335.733 241.23 334.667 242.136 333.76C243.043 332.853 244.11 332.4 245.336 332.4H246.936C248.163 332.4 249.203 332.853 250.056 333.76C250.963 334.667 251.416 335.733 251.416 336.96V369.44C251.416 370.667 250.963 371.733 250.056 372.64C249.203 373.547 248.163 374 246.936 374H245.896C244.616 374 243.523 373.573 242.616 372.72C241.763 371.813 241.31 370.72 241.256 369.44L241.176 368.88C241.176 368.827 241.15 368.8 241.096 368.8C241.043 368.8 240.99 368.827 240.936 368.88C237.31 372.827 233.07 374.8 228.216 374.8ZM276.762 357.2C271.162 355.973 267.162 354.293 264.762 352.16C262.415 350.027 261.242 347.253 261.242 343.84C261.242 340 262.655 337.013 265.482 334.88C268.362 332.693 272.602 331.6 278.202 331.6C281.722 331.6 285.215 331.92 288.682 332.56C289.855 332.773 290.789 333.36 291.482 334.32C292.229 335.227 292.602 336.293 292.602 337.52C292.602 338.533 292.202 339.36 291.402 340C290.602 340.587 289.695 340.747 288.682 340.48C285.695 339.733 282.549 339.36 279.242 339.36C274.442 339.36 272.042 340.693 272.042 343.36C272.042 344.64 272.495 345.707 273.402 346.56C274.309 347.413 275.855 348.08 278.042 348.56C284.175 349.787 288.362 351.44 290.602 353.52C292.895 355.6 294.042 358.64 294.042 362.64C294.042 366.48 292.602 369.467 289.722 371.6C286.842 373.733 282.655 374.8 277.162 374.8C273.589 374.8 269.935 374.373 266.202 373.52C265.029 373.253 264.069 372.64 263.322 371.68C262.575 370.667 262.202 369.52 262.202 368.24C262.202 367.227 262.602 366.453 263.402 365.92C264.255 365.387 265.162 365.253 266.122 365.52C269.589 366.48 272.869 366.96 275.962 366.96C280.815 366.96 283.242 365.52 283.242 362.64C283.242 361.253 282.762 360.16 281.802 359.36C280.895 358.56 279.215 357.84 276.762 357.2Z" fill="black"/>
</g>
<defs>
<clipPath id="clip0">
<rect width="375" height="375" fill="white"/>
</clipPath>
</defs>
</svg>
