<svg width="375" height="375" viewBox="0 0 375 375" fill="none" xmlns="http://www.w3.org/2000/svg">
<g clip-path="url(#clip0)">
<path d="M103.5 0.21875H17C9.00002 0.21875 0 1.61875 0 17.2188V101.719M103.5 10.2188H27.5C8 10.2188 10.5 11.7188 10.5 27.2188V101.719" stroke="black" stroke-width="6"/>
<rect x="24" y="25.2188" width="14" height="14" fill="black"/>
<path d="M1.23423e-06 271.219L2.02723e-07 357.719C1.79171e-08 365.719 1.4 374.719 17 374.719L60 374.719M10 271.219L10 347.219C10 366.719 11.5 364.219 27 364.219L60 364.219" stroke="black" stroke-width="6"/>
<rect x="25" y="350.719" width="14" height="14" transform="rotate(-90 25 350.719)" fill="black"/>
<path d="M309.5 374.719L357.5 374.719C365.5 374.719 374.5 373.319 374.5 357.719L374.5 273.219M309.5 364.719L347 364.719C366.5 364.719 364 363.219 364 347.719L364 273.219" stroke="black" stroke-width="6"/>
<rect x="350.5" y="349.719" width="14" height="14" transform="rotate(-180 350.5 349.719)" fill="black"/>
<path d="M374.276 103.938L374.65 17.4383C374.684 9.43841 373.323 0.432428 357.723 0.365035L273.224 -1.49058e-05M364.276 103.894L364.604 27.895C364.689 8.3952 363.178 10.8887 347.678 10.8217L273.179 10.4999" stroke="black" stroke-width="6"/>
<rect x="349.62" y="24.3303" width="14" height="14" transform="rotate(90.2475 349.62 24.3303)" fill="black"/>
<path d="M180.306 203.135C180.306 248.378 159.755 271 118.653 271C77.551 271 57 248.378 57 203.135V99.327C57 95.473 58.294 92.1216 60.8819 89.273C63.4698 86.4243 66.5143 85 70.0156 85H76.4093C79.9105 85 82.9551 86.4243 85.543 89.273C88.1309 92.1216 89.4249 95.473 89.4249 99.327V205.146C89.4249 218.216 91.7844 227.684 96.5035 233.549C101.375 239.246 108.91 242.095 119.11 242.095C129.309 242.095 136.768 239.246 141.487 233.549C146.359 227.684 148.794 218.216 148.794 205.146V99.327C148.794 95.473 150.088 92.1216 152.676 89.273C155.264 86.4243 158.309 85 161.81 85H167.29C170.792 85 173.836 86.4243 176.424 89.273C179.012 92.1216 180.306 95.473 180.306 99.327V203.135Z" fill="black"/>
<path d="M226.672 254.914L179.405 98.573C178.339 95.2216 178.72 92.1216 180.546 89.273C182.373 86.4243 184.885 85 188.082 85H196.302C200.108 85 203.609 86.3405 206.806 89.0216C210.003 91.5351 212.058 94.8027 212.971 98.8243L247.908 233.8C247.908 233.968 247.984 234.051 248.136 234.051C248.288 234.051 248.365 233.968 248.365 233.8L283.758 98.573C284.823 94.5513 286.879 91.2838 289.923 88.7703C293.12 86.2568 296.621 85 300.427 85H307.734C310.931 85 313.443 86.4243 315.269 89.273C317.096 92.1216 317.477 95.2216 316.411 98.573L269.144 254.914C267.926 258.935 265.719 262.203 262.522 264.716C259.477 267.23 255.976 268.486 252.018 268.486H243.798C239.992 268.486 236.491 267.23 233.294 264.716C230.249 262.203 228.042 258.935 226.672 254.914Z" fill="black"/>
<path d="M109.64 356C108.659 356 107.805 355.637 107.08 354.912C106.397 354.187 106.056 353.333 106.056 352.352V312.928C106.056 311.947 106.397 311.093 107.08 310.368C107.805 309.643 108.659 309.28 109.64 309.28H111.688C112.669 309.28 113.523 309.643 114.248 310.368C114.973 311.093 115.336 311.947 115.336 312.928V348C115.336 348.384 115.507 348.576 115.848 348.576H132.296C133.277 348.576 134.109 348.939 134.792 349.664C135.517 350.347 135.88 351.179 135.88 352.16V352.352C135.88 353.333 135.517 354.187 134.792 354.912C134.109 355.637 133.277 356 132.296 356H109.64ZM149.297 356C148.315 356 147.462 355.637 146.737 354.912C146.011 354.187 145.649 353.333 145.649 352.352V326.368C145.649 325.387 146.011 324.533 146.737 323.808C147.462 323.083 148.315 322.72 149.297 322.72H150.961C151.942 322.72 152.795 323.083 153.521 323.808C154.246 324.533 154.609 325.387 154.609 326.368V352.352C154.609 353.333 154.246 354.187 153.521 354.912C152.795 355.637 151.942 356 150.961 356H149.297ZM149.297 315.68C148.315 315.68 147.462 315.317 146.737 314.592C146.011 313.867 145.649 313.013 145.649 312.032V311.648C145.649 310.667 146.011 309.813 146.737 309.088C147.462 308.363 148.315 308 149.297 308H150.961C151.942 308 152.795 308.363 153.521 309.088C154.246 309.813 154.609 310.667 154.609 311.648V312.032C154.609 313.013 154.246 313.867 153.521 314.592C152.795 315.317 151.942 315.68 150.961 315.68H149.297ZM178.922 328.48C174.228 328.48 171.882 331.893 171.882 338.72C171.882 342.261 172.5 344.907 173.738 346.656C175.018 348.405 176.746 349.28 178.922 349.28C180.842 349.28 182.484 348.597 183.85 347.232C185.258 345.867 185.962 344.267 185.962 342.432V335.52C185.962 333.557 185.258 331.893 183.85 330.528C182.484 329.163 180.842 328.48 178.922 328.48ZM176.234 355.68C172.479 355.68 169.407 354.187 167.018 351.2C164.628 348.171 163.434 344.011 163.434 338.72C163.434 333.429 164.564 329.333 166.826 326.432C169.13 323.531 172.266 322.08 176.234 322.08C178.239 322.08 180.01 322.443 181.546 323.168C183.082 323.893 184.596 325.109 186.09 326.816C186.132 326.859 186.175 326.88 186.218 326.88C186.26 326.88 186.282 326.859 186.282 326.816V326.368C186.324 325.344 186.708 324.491 187.434 323.808C188.159 323.083 189.034 322.72 190.058 322.72H190.762C191.743 322.72 192.575 323.083 193.257 323.808C193.983 324.533 194.346 325.387 194.346 326.368V353.44C194.346 364.96 188.586 370.72 177.066 370.72C175.018 370.72 172.863 370.549 170.602 370.208C169.578 370.037 168.724 369.525 168.042 368.672C167.402 367.861 167.082 366.923 167.082 365.856C167.082 365.003 167.423 364.32 168.106 363.808C168.831 363.339 169.62 363.211 170.474 363.424C172.522 363.936 174.655 364.192 176.874 364.192C180.031 364.192 182.335 363.36 183.786 361.696C185.236 360.075 185.962 357.387 185.962 353.632V351.648C185.962 351.605 185.94 351.584 185.898 351.584C185.855 351.584 185.812 351.605 185.77 351.648C183.21 354.336 180.031 355.68 176.234 355.68ZM207.07 356C206.089 356 205.235 355.637 204.51 354.912C203.827 354.187 203.486 353.333 203.486 352.352V311.648C203.486 310.667 203.827 309.813 204.51 309.088C205.235 308.363 206.089 308 207.07 308H208.35C209.331 308 210.185 308.363 210.91 309.088C211.635 309.813 211.998 310.667 211.998 311.648V326.496C211.998 326.539 212.019 326.56 212.062 326.56C212.105 326.56 212.147 326.539 212.19 326.496C215.177 323.552 218.462 322.08 222.046 322.08C225.929 322.08 228.745 323.189 230.494 325.408C232.243 327.627 233.118 331.424 233.118 336.8V352.352C233.118 353.333 232.755 354.187 232.03 354.912C231.305 355.637 230.451 356 229.47 356H228.446C227.465 356 226.611 355.637 225.886 354.912C225.161 354.187 224.798 353.333 224.798 352.352V338.08C224.798 334.368 224.393 331.915 223.582 330.72C222.814 329.525 221.342 328.928 219.166 328.928C217.459 328.928 215.838 329.696 214.302 331.232C212.766 332.768 211.998 334.411 211.998 336.16V352.352C211.998 353.333 211.635 354.187 210.91 354.912C210.185 355.637 209.331 356 208.35 356H207.07ZM241.826 330.208C240.972 330.208 240.247 329.909 239.65 329.312C239.052 328.672 238.754 327.925 238.754 327.072C238.754 326.219 239.052 325.493 239.65 324.896C240.247 324.299 240.972 324 241.826 324H244.898C245.282 324 245.474 323.808 245.474 323.424V315.488C245.474 314.507 245.815 313.653 246.498 312.928C247.223 312.203 248.076 311.84 249.058 311.84H250.338C251.319 311.84 252.172 312.203 252.898 312.928C253.623 313.653 253.986 314.507 253.986 315.488V323.424C253.986 323.808 254.178 324 254.562 324H261.858C262.711 324 263.436 324.299 264.034 324.896C264.674 325.493 264.994 326.219 264.994 327.072C264.994 327.925 264.674 328.672 264.034 329.312C263.436 329.909 262.711 330.208 261.858 330.208H254.562C254.178 330.208 253.986 330.379 253.986 330.72V343.648C253.986 346.421 254.284 348.213 254.882 349.024C255.479 349.835 256.716 350.24 258.594 350.24C259.618 350.24 260.386 350.197 260.898 350.112C261.751 350.027 262.498 350.219 263.138 350.688C263.778 351.157 264.098 351.797 264.098 352.608C264.098 353.547 263.778 354.4 263.138 355.168C262.54 355.893 261.794 356.299 260.898 356.384C259.02 356.555 257.612 356.64 256.674 356.64C252.535 356.64 249.634 355.765 247.97 354.016C246.306 352.224 245.474 349.045 245.474 344.48V330.72C245.474 330.379 245.282 330.208 244.898 330.208H241.826Z" fill="black"/>
</g>
<defs>
<clipPath id="clip0">
<rect width="375" height="375" fill="white"/>
</clipPath>
</defs>
</svg>
