<?xml version="1.0" standalone="no"?>
<!DOCTYPE svg PUBLIC "-//W3C//DTD SVG 20010904//EN"
 "http://www.w3.org/TR/2001/REC-SVG-20010904/DTD/svg10.dtd">
<svg version="1.0" xmlns="http://www.w3.org/2000/svg"
 width="1280.000000pt" height="494.000000pt" viewBox="0 0 1280.000000 494.000000"
 preserveAspectRatio="xMidYMid meet">
<metadata>
Created by potrace 1.16, written by Peter Selinger 2001-2019
</metadata>
<g transform="translate(0.000000,494.000000) scale(0.100000,-0.100000)"
fill="#000000" stroke="none">
<path d="M2675 4929 c-15 -7 -13 -8 10 -4 24 4 19 0 -24 -25 -30 -16 -57 -28
-60 -25 -6 7 -81 -66 -81 -78 0 -5 18 10 41 34 l41 44 -41 -50 c-82 -102 -109
-219 -76 -331 9 -32 21 -64 27 -71 5 -7 6 -18 2 -24 -5 -8 -3 -9 6 -4 9 6 12
4 8 -7 -4 -8 -2 -21 4 -29 7 -11 8 -9 3 6 -4 13 10 4 39 -25 25 -24 46 -45 46
-47 0 -1 -8 0 -17 4 -19 7 -18 5 11 -17 16 -12 18 -12 12 -1 -6 9 -5 12 5 9 8
-3 13 -10 12 -16 -2 -7 4 -9 14 -5 11 4 14 3 9 -5 -5 -8 -1 -10 10 -5 10 3 15
2 12 -3 -8 -12 44 -18 152 -18 73 -1 92 3 138 27 29 14 56 26 60 25 13 -4 58
31 81 63 13 18 18 28 11 24 -8 -5 -11 -3 -8 6 3 8 10 13 15 12 5 -1 9 6 10 15
1 9 9 37 19 62 28 71 24 182 -9 254 -15 32 -25 61 -23 65 3 4 0 13 -6 21 -8
12 -9 11 -4 -4 7 -19 6 -19 -14 -1 -22 20 -28 41 -7 29 6 -4 3 2 -7 14 -20 23
-32 30 -21 12 3 -5 2 -10 -4 -10 -11 0 -26 20 -26 34 0 5 -9 10 -20 11 -11 1
-33 9 -50 19 -27 15 -27 16 -5 11 16 -4 21 -3 12 3 -17 11 -281 12 -307 1z"/>
<path d="M585 4225 c-84 -18 -161 -49 -231 -91 -32 -20 -67 -38 -78 -40 -10
-2 -21 -6 -25 -10 -3 -4 3 -4 13 0 19 7 19 6 1 -14 -20 -22 -40 -27 -29 -7 4
6 -8 -1 -25 -18 -39 -36 -102 -113 -82 -101 9 6 12 5 9 -5 -3 -8 -10 -14 -17
-14 -14 0 -41 -33 -41 -49 1 -6 8 2 16 17 9 16 18 27 20 24 8 -8 -35 -72 -48
-72 -6 0 -18 -15 -25 -32 -7 -18 -11 -33 -8 -33 4 0 11 14 17 31 6 16 12 28
14 27 2 -2 -10 -41 -26 -87 -16 -48 -30 -75 -32 -64 -3 10 -5 -72 -5 -182 -1
-187 6 -255 29 -280 5 -5 2 10 -7 34 -8 24 -15 51 -15 60 0 9 11 -13 24 -49
27 -76 48 -119 88 -178 16 -23 27 -46 23 -51 -7 -12 114 -133 125 -126 5 3 26
-6 47 -21 128 -87 261 -128 418 -127 160 0 298 43 417 128 27 20 52 33 57 31
4 -3 32 20 62 51 30 31 48 53 42 49 -19 -11 -16 9 4 25 14 12 16 12 8 0 -5
-10 -4 -12 4 -7 6 4 9 12 5 17 -3 6 1 18 9 27 23 26 83 150 102 212 9 31 19
106 22 170 5 99 2 127 -17 200 -13 47 -23 95 -24 107 0 12 -3 19 -5 17 -7 -7
-63 98 -66 124 -3 23 -53 90 -69 91 -4 1 8 -17 28 -39 20 -22 36 -43 36 -47 0
-4 -4 -3 -8 2 -4 6 -39 44 -77 85 -38 41 -63 69 -55 63 8 -7 19 -13 24 -13 6
0 3 5 -6 11 -10 5 -19 9 -20 8 -8 -6 -48 23 -43 31 6 10 -80 70 -99 70 -6 0
13 -14 42 -31 29 -17 51 -33 49 -35 -8 -8 -116 63 -109 71 4 5 1 5 -6 1 -14
-8 -54 2 -48 12 2 4 -6 8 -17 8 -12 1 -53 9 -92 18 -83 19 -217 19 -300 1z"/>
<path d="M4960 3619 c-19 -4 -41 -6 -48 -4 -21 8 -122 -51 -122 -70 0 -5 10 1
23 12 23 21 80 53 94 53 4 0 -12 -12 -37 -26 -25 -14 -64 -43 -86 -66 -23 -22
-46 -40 -50 -39 -5 0 -9 -5 -9 -12 -1 -6 -12 -34 -25 -62 -21 -43 -24 -65 -25
-155 0 -99 2 -109 32 -166 17 -34 29 -65 25 -69 -4 -4 -2 -5 4 -3 5 2 35 -19
65 -46 30 -27 44 -44 32 -37 -12 6 -25 16 -28 21 -3 6 -11 10 -18 10 -6 0 4
-11 22 -24 19 -14 40 -22 49 -19 10 4 13 2 8 -5 -5 -8 -1 -10 10 -5 13 5 15 3
9 -7 -5 -8 -4 -11 2 -7 6 4 41 -1 77 -10 118 -29 235 4 338 95 l53 46 -40 -43
c-22 -23 -59 -54 -82 -68 -50 -29 -57 -41 -11 -17 46 24 138 113 132 129 -3 7
0 16 7 21 8 5 10 3 4 -7 -5 -8 -4 -11 0 -6 5 4 10 15 11 25 2 9 12 44 24 77
45 125 12 269 -87 377 -26 29 -37 44 -23 33 38 -31 58 -56 90 -110 34 -56 40
-54 11 4 -27 52 -106 132 -124 125 -8 -3 -18 0 -23 7 -5 8 -3 10 7 4 8 -5 11
-4 6 1 -5 5 -14 9 -20 9 -7 0 -43 11 -81 23 -70 23 -135 26 -196 11z"/>
<path d="M2825 3340 c-86 -14 -224 -55 -301 -90 -36 -16 -71 -27 -77 -23 -6 4
-7 1 -2 -7 6 -10 4 -12 -9 -7 -17 7 -117 -51 -132 -75 -4 -6 21 8 55 32 35 23
65 40 67 37 5 -5 -117 -82 -131 -82 -14 -1 -52 -24 -39 -25 5 0 16 6 24 13 8
6 6 2 -5 -11 -10 -12 -24 -21 -30 -18 -11 4 -152 -132 -186 -179 -7 -11 29 23
81 76 81 82 84 84 19 14 -178 -191 -283 -408 -320 -655 -18 -124 -7 -322 25
-444 14 -54 23 -103 19 -109 -4 -6 -1 -7 7 -2 9 6 11 0 6 -21 -4 -20 -1 -36 9
-49 16 -20 16 -19 6 2 -6 12 -11 28 -11 35 1 7 16 -20 35 -60 19 -40 32 -79
29 -86 -3 -7 3 -19 13 -27 16 -13 17 -12 4 4 -8 9 -11 20 -8 23 8 9 29 -35 22
-46 -4 -6 -2 -9 3 -8 11 4 115 -132 115 -150 0 -15 158 -167 190 -183 12 -5 4
5 -18 23 -22 18 -69 61 -105 97 l-65 64 72 -66 c320 -293 731 -395 1131 -281
96 27 247 96 317 144 25 17 49 29 54 26 5 -3 15 2 22 12 13 16 13 16 -6 2 -19
-14 -19 -14 -6 3 8 10 19 16 25 14 7 -3 22 4 35 14 13 11 20 19 15 19 -4 0
-17 -8 -28 -17 -12 -10 -5 -1 13 20 35 37 65 52 40 20 -12 -15 -10 -15 8 1 12
10 21 23 20 30 -1 6 3 10 9 9 7 -1 20 8 30 20 16 18 16 20 2 8 -33 -25 -17 4
29 54 25 28 42 43 38 35 -5 -8 -4 -11 0 -7 5 4 10 14 11 21 2 15 34 66 41 66
3 0 -2 -12 -11 -27 l-17 -28 20 24 c12 12 19 27 16 31 -8 12 80 171 90 163 4
-5 5 -2 1 4 -4 7 4 43 17 80 46 127 61 226 61 388 -1 121 -5 168 -24 245 -12
52 -23 105 -24 117 0 11 -5 19 -10 16 -5 -4 -6 7 -3 23 3 16 4 23 0 15 -3 -7
-24 26 -49 78 -24 51 -52 105 -64 120 -22 32 -26 46 -8 35 7 -4 8 -3 4 5 -4 6
-11 9 -15 6 -5 -2 -21 13 -35 34 -15 21 -38 49 -51 61 -28 27 -34 49 -7 29 9
-7 -8 13 -38 44 -52 55 -68 68 -55 47 13 -21 -13 -9 -36 17 -13 15 -16 21 -6
14 9 -8 19 -12 21 -10 2 2 -11 15 -28 29 -17 13 -25 17 -17 7 7 -9 9 -17 3
-17 -13 0 -33 25 -26 33 7 7 -145 107 -161 107 -5 0 6 -10 25 -22 105 -64 130
-81 127 -85 -3 -2 -37 17 -77 42 -78 51 -223 115 -308 136 -38 9 -48 15 -35
20 10 3 -4 6 -32 6 -27 1 -117 3 -200 6 -82 3 -177 2 -210 -3z"/>
<path d="M4309 1603 c-10 -12 -10 -15 -1 -9 10 6 12 -107 10 -576 l-3 -583
183 3 182 3 0 399 0 400 280 0 280 0 0 -107 0 -108 -222 3 c-122 1 -225 -1
-229 -5 -5 -5 -9 -89 -9 -188 l-2 -180 98 -3 c54 -1 104 -8 111 -14 10 -8 12
-7 7 5 -5 13 -26 17 -112 20 l-107 3 107 2 c99 2 108 0 118 -18 6 -11 8 -26 4
-32 -4 -6 -3 -8 3 -5 14 9 96 -129 87 -145 -4 -7 -3 -8 5 -4 6 4 14 0 17 -8 5
-14 37 -16 240 -16 129 0 234 3 234 6 0 5 -26 49 -112 191 l-19 32 38 17 c21
9 44 17 51 18 7 1 18 8 25 16 9 10 9 11 0 6 -16 -9 -16 -6 2 37 12 28 15 103
15 397 l1 363 -32 31 c-18 17 -27 23 -20 14 18 -24 10 -23 -36 5 -38 22 -39
22 -613 27 l-575 5 565 5 565 5 -561 3 c-517 2 -563 1 -575 -15z m1154 -135
c16 -12 17 -42 15 -348 l-3 -334 -35 -9 c-19 -4 -42 -9 -50 -11 -23 -3 -41
-16 -36 -25 3 -4 -1 -29 -9 -55 -11 -34 -12 -53 -4 -65 8 -13 9 -11 4 9 -4 14
8 1 25 -28 17 -30 29 -56 26 -60 -3 -3 -6 -1 -6 4 0 5 -45 8 -103 6 l-104 -3
-57 95 c-31 52 -66 102 -78 111 -15 10 -45 15 -90 15 l-68 0 0 70 0 70 185 0
c144 0 192 3 214 15 16 8 31 12 35 10 3 -3 4 -2 2 1 -2 3 2 21 10 39 20 49 19
270 -1 309 -9 16 -13 31 -11 33 2 3 11 -8 20 -24 8 -15 15 -23 16 -17 0 18
-40 63 -71 79 -16 9 -29 13 -29 11 0 -3 14 -13 31 -21 17 -9 29 -18 26 -21 -2
-2 -17 3 -33 11 -25 13 -79 15 -351 14 -178 0 -321 -4 -318 -9 2 -4 -4 -15
-15 -25 -15 -14 -20 -15 -20 -4 0 8 -7 4 -16 -9 -8 -12 -13 -32 -11 -45 4 -19
4 -18 6 5 0 15 6 30 13 34 8 5 9 2 5 -10 -4 -10 -7 -180 -7 -379 l0 -362 -70
0 -70 0 0 468 0 467 508 0 c391 0 512 -3 525 -12z"/>
<path d="M4440 1015 c0 -250 3 -455 8 -455 4 0 6 203 4 450 l-2 450 502 -2
503 -3 3 -327 c2 -312 1 -328 -16 -328 -10 0 -27 -7 -38 -16 -18 -15 -18 -15
3 -5 12 6 31 11 42 11 21 0 21 3 21 334 0 295 -2 335 -16 340 -9 3 -240 6
-515 6 l-499 0 0 -455z"/>
<path d="M7180 1603 c-4 -189 3 -1160 8 -1165 4 -4 283 -9 619 -10 336 -2 606
1 600 5 -7 5 2 7 20 5 18 -3 29 0 26 5 -3 5 3 6 15 3 11 -4 23 -2 27 3 4 7 -1
8 -12 4 -14 -4 -15 -3 -7 6 6 7 18 13 25 14 22 4 40 18 34 26 -2 5 3 24 13 42
15 30 17 79 20 461 2 365 0 432 -13 464 -18 44 -18 47 -3 38 7 -5 8 -3 4 5 -5
7 -11 10 -14 7 -8 -8 -63 45 -57 54 3 4 -8 15 -23 24 l-27 17 25 -22 c19 -17
21 -20 5 -13 -11 5 -304 11 -655 14 l-635 5 630 5 630 5 -627 3 c-346 1 -628
-1 -628 -5z m1030 -415 l0 -53 -325 0 c-210 0 -325 4 -325 10 0 6 -5 3 -10 -5
-7 -11 -10 2 -10 43 l0 57 335 0 335 0 0 -52z m0 -348 l0 -50 -335 0 -335 0 0
50 0 50 335 0 335 0 0 -50z"/>
<path d="M10152 1598 c-9 -9 -11 -151 -10 -587 l3 -576 5 580 5 580 587 0
c322 0 581 3 575 7 -7 4 -269 8 -582 8 -431 0 -574 -3 -583 -12z"/>
<path d="M5819 1592 c11 -8 9 -11 -8 -17 -12 -4 -38 -20 -57 -37 -19 -17 -32
-23 -28 -14 3 8 22 25 41 37 19 12 32 23 29 26 -7 7 -64 -38 -82 -65 -10 -15
-11 -22 -3 -17 9 6 10 3 5 -11 -24 -58 -27 -115 -24 -508 l3 -424 23 -32 c13
-17 22 -34 19 -36 -7 -7 -47 61 -47 79 0 9 -4 18 -9 22 -15 9 5 -52 28 -83 27
-39 46 -53 73 -57 13 -2 49 -8 81 -15 41 -8 211 -10 565 -8 465 3 510 4 540
21 18 10 37 15 41 12 5 -3 23 11 39 30 l31 34 1 463 1 463 -32 50 c-17 27 -24
43 -14 35 9 -7 25 -31 36 -52 19 -37 19 -58 17 -487 -2 -248 1 -443 5 -436 4
8 6 217 5 464 l-3 449 -31 39 c-18 21 -39 37 -47 35 -9 -1 -19 3 -23 9 -5 8
-3 9 6 4 8 -5 11 -4 6 3 -4 6 -14 8 -23 5 -10 -4 -14 -2 -9 5 5 8 -150 11
-564 12 -313 0 -578 3 -587 6 -14 5 -15 4 -4 -4z m1116 -112 c4 -7 -3 -9 -22
-5 -25 5 -26 4 -5 -4 12 -6 28 -8 36 -5 33 12 36 -31 36 -456 l0 -421 -25 -24
-24 -25 -545 0 c-388 0 -547 3 -552 11 -4 8 1 9 17 4 18 -5 21 -4 9 4 -8 6
-24 8 -34 5 -15 -5 -18 -3 -13 10 4 10 3 14 -3 11 -19 -11 -21 44 -18 448 l3
409 28 24 28 24 539 0 c362 0 541 -3 545 -10z"/>
<path d="M6005 1326 c-24 -19 -39 -20 -29 -3 4 6 3 9 -1 4 -5 -4 -11 -17 -13
-30 -9 -39 -7 -541 1 -562 9 -20 8 -20 -7 -1 -9 11 -16 15 -16 10 0 -6 12 -21
27 -35 14 -13 23 -18 18 -10 -7 11 -4 12 11 5 10 -5 186 -10 390 -12 l372 -2
31 26 c17 14 29 19 26 11 -4 -8 -17 -20 -31 -27 -13 -7 -22 -15 -20 -18 7 -6
46 23 64 49 8 12 10 19 4 15 -9 -5 -12 58 -12 258 0 145 -3 273 -6 283 -6 15
-5 16 7 5 11 -10 14 -63 14 -272 0 -142 4 -252 8 -244 5 8 7 124 5 258 -3 222
-5 246 -22 265 -10 11 -23 19 -30 18 -6 -1 -10 3 -9 10 2 8 -95 12 -380 13
-326 1 -385 -1 -402 -14z m393 -93 l-338 -3 0 -215 0 -215 328 2 327 3 -322 2
-323 3 0 205 0 205 315 0 315 0 2 -202 2 -203 6 205 5 205 5 -218 5 -217 -337
0 -338 0 0 225 0 225 343 -2 342 -3 -337 -2z"/>
<path d="M9360 1589 c-311 -3 -576 -8 -590 -11 -14 -2 -25 -11 -25 -18 0 -7
-6 -15 -14 -18 -8 -3 -11 0 -7 7 11 17 0 13 -15 -6 -12 -14 -12 -16 0 -9 9 6
12 4 9 -5 -3 -8 -11 -14 -18 -14 -7 0 -15 -11 -18 -25 -3 -14 -7 -223 -9 -465
l-3 -440 22 -45 c16 -31 38 -54 72 -75 l49 -30 515 -3 c388 -2 528 0 570 10
32 7 62 13 69 13 6 0 15 4 20 9 5 5 2 6 -6 1 -10 -6 -12 -4 -7 4 5 7 14 10 21
7 8 -3 19 3 27 12 12 16 11 16 -6 2 -14 -10 -11 -2 10 29 l29 45 3 425 c2 234
0 441 -3 459 -3 18 -23 52 -43 74 -20 23 -35 43 -32 46 3 2 -6 11 -20 20 l-25
14 25 -21 c28 -23 23 -27 -14 -10 -14 7 -23 16 -20 20 3 5 4 8 2 7 -2 -2 -257
-5 -568 -9z m340 -574 l0 -225 -335 0 -335 0 0 225 0 225 335 0 335 0 0 -225z"/>
<path d="M9358 1223 l322 -3 0 -205 0 -205 -322 -3 -323 -2 328 -3 327 -2 0
215 0 215 -327 -2 -328 -3 323 -2z"/>
<path d="M12434 1591 c-2 -2 -4 -9 -4 -15 0 -6 5 -4 10 4 6 10 10 -95 10 -305
l0 -320 -25 30 c-26 32 -33 51 -13 39 7 -4 8 -3 4 5 -4 6 -11 9 -16 6 -10 -6
-43 43 -35 55 3 5 0 12 -6 16 -8 4 -9 3 -5 -4 4 -7 5 -12 3 -12 -10 0 -208
291 -203 298 3 4 0 14 -6 22 -8 12 -9 11 -4 -4 6 -16 4 -17 -9 -6 -8 7 -13 20
-10 30 3 10 -4 24 -17 36 l-23 19 19 -23 c11 -12 17 -24 14 -27 -5 -5 -68 81
-68 93 0 4 10 -4 21 -18 l21 -25 -14 25 c-9 14 -21 25 -28 25 -8 0 -15 6 -18
14 -3 8 0 11 7 7 17 -11 13 0 -6 15 -14 12 -16 12 -9 -1 4 -9 1 -8 -7 3 -13
15 -38 17 -251 17 l-236 0 2 -577 3 -578 175 0 175 0 5 320 c3 176 8 315 13
308 4 -6 4 -19 1 -30 -4 -13 -3 -15 4 -4 11 15 27 -2 17 -18 -3 -5 0 -13 6
-17 8 -5 9 -3 4 6 -6 9 -4 11 4 6 7 -5 10 -14 7 -21 -6 -16 18 -50 35 -50 7 0
14 -6 17 -14 3 -9 0 -11 -9 -6 -8 5 -11 4 -6 -1 5 -5 14 -9 20 -9 7 0 12 -10
13 -21 1 -20 50 -94 61 -94 3 0 -6 15 -19 33 -30 40 -41 57 -34 57 10 0 207
-291 202 -298 -7 -12 23 -54 34 -47 4 3 17 -10 28 -27 50 -80 36 -76 287 -78
l225 -1 0 580 0 580 -181 3 c-99 2 -183 1 -185 -1z"/>
<path d="M10162 1013 l3 -578 175 0 175 0 0 403 0 402 283 0 282 0 0 -110 0
-110 -232 0 c-167 0 -229 3 -218 11 10 7 11 9 2 7 -8 -2 -13 -7 -13 -11 1 -4
1 -88 1 -187 l0 -179 107 -3 107 -3 62 -105 c35 -57 61 -107 58 -111 -2 -5
104 -8 237 -8 222 0 240 1 233 17 -4 9 -7 25 -8 34 0 9 -4 14 -8 12 -11 -7
-30 35 -22 48 4 6 3 8 -3 5 -6 -4 -27 20 -47 54 -20 34 -35 62 -34 63 42 17
86 47 102 69 20 28 21 39 21 397 l0 369 -28 29 c-16 17 -27 32 -25 35 1 3 -1
9 -6 14 -5 5 -6 3 -2 -4 9 -17 -3 -16 -34 2 -21 12 -120 14 -598 15 l-572 0 2
-577z"/>
<path d="M1333 1223 c5 -7 -35 -12 -116 -15 -103 -4 -133 -9 -192 -33 -38 -15
-81 -27 -94 -27 -16 0 -20 -3 -11 -8 8 -5 9 -9 1 -14 -6 -4 -16 -4 -23 0 -7 5
-8 3 -3 -6 6 -10 4 -12 -8 -7 -9 3 -21 -1 -29 -11 -12 -16 -11 -16 7 -2 20 15
20 14 1 -8 -20 -23 -42 -30 -30 -9 12 21 -87 -77 -109 -108 -11 -16 6 -3 39
31 32 34 42 42 22 18 -61 -70 -106 -147 -135 -231 -23 -67 -27 -94 -27 -193 0
-101 3 -124 28 -190 15 -41 29 -85 31 -98 3 -22 31 -72 40 -72 2 0 -5 17 -17
38 -28 47 -17 39 21 -18 16 -24 28 -47 26 -50 -2 -4 19 -29 47 -56 28 -27 48
-43 44 -36 -11 19 2 15 37 -12 36 -28 155 -86 175 -86 7 0 11 -4 8 -8 -3 -5
78 -9 179 -9 108 -1 187 3 191 8 3 6 -6 7 -23 4 -15 -3 -3 5 27 17 96 40 138
66 207 131 36 34 63 55 58 47 -8 -13 -7 -13 8 -1 18 15 23 26 7 16 -16 -10
-12 0 24 54 96 142 121 345 65 516 -13 39 -23 76 -22 82 0 7 -4 10 -10 6 -6
-4 -8 0 -4 11 4 10 3 15 -3 11 -5 -3 -16 8 -24 24 -9 16 -42 58 -73 93 l-57
63 50 -45 49 -45 -55 58 c-50 53 -79 77 -50 42 7 -8 8 -15 2 -15 -13 0 -33 25
-26 33 3 3 -5 10 -18 17 -22 11 -23 11 -3 -6 24 -20 20 -18 -73 28 -40 20 -91
39 -113 43 -21 4 -37 11 -34 15 3 5 0 12 -6 16 -7 4 -9 3 -6 -3z"/>
</g>
</svg>
